<svg width="170" height="43" viewBox="0 0 170 43" fill="none" xmlns="http://www.w3.org/2000/svg">
<path d="M1.73277 1.42339C1.25164 1.7782 1.25164 2.13301 0.890804 2.9609L0.409683 4.62569H6.985C10.6094 4.62569 13.1594 4.73495 13.3999 4.9715C13.5202 5.20803 12.6302 10.3342 11.4755 16.4527C11.2189 17.8404 10.1283 23.9274 9.06986 30.0144C7.97932 36.0698 7.01708 41.3683 6.92085 41.7468C6.76048 42.4406 6.8567 42.4722 8.81326 42.4722L10.8741 42.4632L11.2509 40.4852C11.9887 36.2275 17.4093 6.0134 17.5697 5.31955C17.73 4.62569 17.7621 4.62569 24.4657 4.62569H31.2014V3.67052C31.2014 3.31571 31.2976 2.67029 31.3939 2.00798L31.6184 0.841045H16.5112C2.43039 0.841045 2.1549 1.11208 1.73277 1.42339Z" fill="black"/>
<path d="M36.6139 0.951092C36.4215 1.07725 35.8844 4.15333 35.2429 7.62259C31.458 28.5958 29.0684 41.5729 29.0363 42.1091C28.9901 42.8817 29.1567 42.5821 32.1316 42.5044C32.9335 42.4729 33.0618 42.3467 33.2221 41.2744C33.3184 40.6436 33.8957 37.2059 34.5372 33.642C36.7183 21.3735 37.873 14.845 39.0598 8.31644C39.7012 4.72102 40.3186 1.2034 40.2223 0.951092C39.7412 0.832821 37.4559 0.951092 36.6139 0.951092Z" fill="black"/>
<path d="M46.4371 1.53382C46.3408 1.94382 45.571 6.23309 44.705 11.0901C43.839 15.947 42.2353 24.8409 41.1768 30.8333C40.0863 36.8572 39.2202 41.9034 39.2202 42.1242C39.2202 42.3449 39.9259 42.4711 41.1127 42.4711C42.9409 42.4711 43.0371 42.4396 43.1975 41.588C43.2937 41.1149 44.0956 36.5418 44.9937 31.4325C47.72 16.0732 49.4521 6.42233 49.5483 6.32771C49.6125 6.29617 50.6068 8.69312 51.7935 11.6578C54.135 17.5555 58.1123 27.6164 61.7367 36.6995C61.7367 36.6995 63.7976 42.4621 64.0144 42.4711C64.2313 42.4801 66.8366 42.4711 66.8366 42.4711C69.5309 42.4711 69.6912 42.4396 69.8516 41.7457C69.9158 41.3672 70.5573 37.8664 71.2629 33.9556C71.9685 30.0448 73.5723 21.1824 74.8232 14.2755C76.0741 7.36849 77.0363 1.50228 76.9401 1.28151C76.7156 0.713814 73.7326 0.682278 73.3157 1.21844C73.1553 1.43921 72.4817 4.59308 71.8402 8.25157C68.4082 27.6164 66.7724 36.668 66.6762 36.9518C66.5479 37.3618 66.0026 36.1003 63.1159 28.7517C61.8329 25.4402 59.2669 19.0063 57.4066 14.4016C55.5784 9.79697 53.6539 4.97154 53.1407 3.67846C52.6596 2.38537 52.0822 1.21843 51.8898 1.09228C51.7294 0.966125 50.4464 0.83997 49.0993 0.83997C46.7899 0.83997 46.5974 0.903046 46.4371 1.53382Z" fill="black"/>
<path d="M81.559 1.12467C81.559 1.28236 83.8042 6.70702 86.5627 13.204C89.3211 19.6694 91.6305 25.1572 91.7267 25.3464C91.8229 25.5672 92.0795 25.7564 92.3361 25.7564C92.9135 25.7564 92.9776 25.1256 91.5342 33.168C90.8286 36.9842 90.1871 40.6742 90.0909 41.3681L89.8664 42.6296L91.8871 42.535L93.9398 42.4089L95.3191 34.4926C96.8907 25.6933 96.8586 25.7564 97.4039 25.7564C97.5964 25.7564 100.226 22.6341 103.209 18.7864C106.224 14.9702 110.49 9.48243 112.768 6.61241C115.013 3.77392 116.841 1.28236 116.841 1.12467C116.841 0.683125 112.864 0.77774 112.287 1.21928C111.549 1.81852 97.2756 20.6471 96.3775 22.2241C95.5436 23.6749 94.9342 23.801 94.7738 22.571C94.6455 21.8772 93.587 19.1648 88.7117 6.99087C86.0495 0.336197 86.4344 0.840816 83.8042 0.840816C82.5533 0.840816 81.559 0.966972 81.559 1.12467Z" fill="black"/>
<path d="M126.175 2.25486C123.706 2.88563 121.717 4.52565 120.723 6.82797C119.985 8.43645 120.145 8.81491 121.781 9.03569C124.411 9.38261 124.636 9.31953 125.213 8.08952C125.951 6.57566 127.651 5.88181 129.319 6.35489C130.73 6.7649 131.211 7.30105 131.307 8.43645C131.372 9.25646 131.243 9.31953 127.266 10.4865C121.621 12.0949 120.242 13.1988 120.21 16.0688C120.178 18.7812 122.038 20.8942 124.828 21.3673C126.336 21.6196 128.453 21.115 129.511 20.295C130.506 19.5065 132.053 17.4398 132.053 16.7459C132.053 16.399 132.053 16.3911 132.414 16.1546C132.655 16.0363 132.895 16.123 132.895 16.1546C132.895 16.2177 132.526 17.2358 132.173 18.3712C131.821 19.5065 131.532 20.4527 131.532 20.4842C131.532 20.5473 132.622 20.5789 133.938 20.5789H136.343V14.1134C136.343 7.04875 136.151 6.13412 134.483 4.39949C134.002 3.89487 133.072 3.20102 132.398 2.88563C131.051 2.19178 127.747 1.84485 126.175 2.25486ZM131.532 13.4826C131.532 14.0819 131.372 14.9019 131.147 15.3434C130.153 17.5511 126.143 18.0558 125.117 16.1319C124.443 14.965 125.598 13.9242 128.357 13.1357C131.564 12.2211 131.532 12.2211 131.532 13.4826Z" fill="black"/>
<path d="M158.154 2.25439C153.439 3.76825 151.097 8.27829 152.059 13.9237C152.733 17.8345 155.171 20.5153 158.699 21.2092C161.553 21.8084 165.21 20.9253 167.07 19.2222C168.065 18.3076 169.251 16.2576 169.54 15.0276L169.58 14.4982C169.58 14.4982 169.642 14.2376 169.46 14.0252C169.228 13.7541 168.618 13.7886 168.618 13.7886H167.535C165.37 13.7886 165.13 13.5521 164.889 14.3022C164.889 15.3114 162.965 17.1091 161.682 17.2984C158.154 17.8661 155.908 14.3022 156.871 9.72907C157.159 8.40444 157.48 7.77367 158.346 7.04828C160.399 5.25057 163.735 6.0075 164.601 8.43598L165.05 9.60292L166.814 9.5309C170.061 9.5309 169.733 9.0983 169.123 7.61598C168.45 5.91288 166.397 3.67363 164.761 2.85363C163.35 2.12824 159.597 1.78131 158.154 2.25439Z" fill="black"/>
<path d="M146.863 3.23305C145.677 3.86382 143.72 6.15729 143.72 7.16653C143.72 7.73423 143.527 7.75788 143.239 7.2848C143.111 7.12711 143.367 6.16615 143.72 5.06229C144.073 3.98997 144.362 3.04381 144.362 2.98074C144.362 2.9492 143.271 2.91766 141.956 2.91766H139.55V11.7485V20.5793H141.956H144.362V15.2808C144.362 9.44618 144.522 8.87848 146.254 7.74308C147.088 7.20693 147.793 7.01769 149.205 7.01769H151.097L151.177 4.80113C151.177 4.80113 151.424 3.3894 150.696 2.9088C150.207 2.58611 149.59 2.60227 149.59 2.60227C148.692 2.63381 147.537 2.88612 146.863 3.23305Z" fill="black"/>
<path d="M168.729 32.9434C168.729 34.4888 168.906 35.2819 168.97 34.5565C169.09 33.8468 169.154 32.1832 169.09 31.3632C169.026 30.5432 168.729 31.3665 168.729 32.9434Z" fill="black"/>
<path d="M132.405 32.7637C132.405 34.7506 132.758 35.4838 132.886 34.5376C133.047 33.2761 133.063 32.1418 133.768 32.1418C134.474 32.1418 134.714 32.4257 134.811 33.5926C134.939 35.2957 135.372 35.2642 135.372 33.5926C135.372 32.1103 134.763 31.3849 133.64 31.5742C132.902 31.7318 133.015 31.0685 132.886 29.8069C132.646 28.979 132.405 31.1237 132.405 32.7637Z" fill="black"/>
<path d="M137.056 30.2621C137.056 30.4196 137.216 30.5771 137.376 30.5771C137.568 30.5771 137.697 30.4196 137.697 30.2621C137.697 30.073 137.568 29.947 137.376 29.947C137.216 29.947 137.056 30.073 137.056 30.2621Z" fill="black"/>
<path d="M152.131 31.1164C152.131 31.4002 151.834 31.684 151.641 31.7471C151.16 31.9048 151.16 31.8654 151.714 31.9679C151.938 31.9995 152.099 32.4725 152.099 33.261C152.099 34.5856 152.772 35.2479 153.446 34.5856C153.67 34.3649 153.574 34.2702 153.189 34.3018C152.708 34.3649 152.548 34.1125 152.483 33.1979C152.387 32.2202 152.483 32.031 153.125 31.9048C153.831 31.7787 153.831 31.7787 153.157 31.7156C152.772 31.7156 152.387 31.4318 152.323 31.1164C152.243 30.4461 152.243 30.3279 152.131 31.1164Z" fill="black"/>
<path d="M140.223 31.1164C140.223 31.4002 139.926 31.684 139.733 31.7471C139.252 31.9048 139.252 31.8654 139.806 31.9679C140.03 31.9995 140.19 32.4725 140.19 33.261C140.19 34.5856 140.864 35.2479 141.538 34.5856C141.762 34.3649 141.666 34.2702 141.281 34.3018C140.8 34.3649 140.64 34.1125 140.575 33.1979C140.479 32.2202 140.575 32.031 141.217 31.9048C141.923 31.7787 141.923 31.7787 141.249 31.7156C140.864 31.7156 140.479 31.4318 140.415 31.1164C140.335 30.4461 140.335 30.3279 140.223 31.1164Z" fill="black"/>
<path d="M128.359 31.7427C127.525 32.3104 127.768 33.8266 128.506 34.5205C129.051 35.0882 130.725 34.8816 130.981 34.4401C130.861 33.4939 130.251 34.223 129.931 34.3176C129.161 34.5068 128.519 33.7183 128.648 32.7722C128.712 32.2675 129.193 32.0825 129.899 31.9563C130.981 32.1929 130.981 31.9563 130.428 31.4859C129.69 31.2021 129.193 31.1434 128.359 31.7427Z" fill="black"/>
<path d="M143.937 31.8556C143.167 32.3918 142.975 33.811 143.616 34.4418C144.065 34.8834 145.701 34.9466 145.958 34.5366C146.198 33.9453 145.437 34.2055 145.116 34.3001C144.506 34.4262 143.793 33.8033 143.793 33.2356C143.793 33.0779 144.049 33.2344 144.755 33.2344C146.134 33.2344 146.621 32.8018 145.9 31.8556C145.539 31.6191 144.835 31.2249 143.937 31.8556ZM145.477 32.2972C145.477 32.4549 145.204 32.6442 144.755 32.6442C144.306 32.6442 143.905 32.4864 144.033 32.2972C144.129 32.1079 144.514 31.9818 144.867 31.9818C145.188 31.9818 145.477 32.1079 145.477 32.2972Z" fill="black"/>
<path d="M148.202 32.0292C147.849 32.3761 147.56 32.9123 147.56 33.2276C147.56 34.4576 149.741 35.4353 150.319 34.4892C150.479 34.2369 150.383 34.2053 149.998 34.3315C149.068 34.6784 148.138 33.9846 148.266 33.0384C148.33 32.3446 148.675 32.2251 149.605 32.099C150.447 32.5236 150.808 32.3355 150.03 31.6192C149.909 31.5076 148.907 31.3353 148.202 32.0292Z" fill="black"/>
<path d="M161.834 31.6558C161.609 31.782 161.224 31.845 160.968 31.7504C160.647 31.6243 160.551 31.9712 160.551 33.2012C160.551 35.1251 161.128 35.3774 161.256 33.4851C161.353 32.3497 161.481 32.1289 162.154 31.9712C162.604 31.8766 162.796 31.6874 162.604 31.5927C162.443 31.4666 162.09 31.4981 161.834 31.6558Z" fill="black"/>
<path d="M121.082 31.9185C120.794 32.1078 120.537 32.3916 120.537 32.5808C120.537 32.7701 120.826 32.6755 121.146 32.3916C121.852 31.7608 122.045 31.9816 122.077 33.3693C122.077 33.937 121.916 34.4416 121.66 34.5362C121.018 34.757 120.665 34.0947 121.211 33.7162C122.822 33.3366 121.499 33.3366 121.018 33.527C120.656 33.6702 120.377 33.8739 120.377 34.2524C120.377 34.7886 120.601 34.8832 121.98 34.9147C122.879 34.9462 123.392 34.8832 123.199 34.8201C122.943 34.7255 122.782 34.1578 122.782 33.4639C122.782 32.0762 122.045 31.4139 121.082 31.9185Z" fill="black"/>
<path d="M164.865 31.9185C164.576 32.1078 164.319 32.3916 164.319 32.5808C164.319 32.7701 164.608 32.6755 164.929 32.3916C165.634 31.7608 165.827 31.9816 165.859 33.3693C165.859 33.937 165.699 34.4416 165.442 34.5362C164.8 34.757 164.448 34.0947 164.993 33.7162C166.605 33.3366 165.282 33.3366 164.8 33.527C164.438 33.6702 164.159 33.8739 164.159 34.2524C164.159 34.7886 164.384 34.8832 165.763 34.9147C166.661 34.9462 167.174 34.8832 166.982 34.8201C166.725 34.7255 166.565 34.1578 166.565 33.4639C166.565 32.0762 165.827 31.4139 164.865 31.9185Z" fill="black"/>
<path d="M124.713 33.3451L124.777 34.9221L125.043 34.9221L125.082 33.1785C125.21 32.2639 125.683 31.9958 126.405 32.1141C127.487 31.9958 126.83 31.6962 125.803 31.7593C124.745 31.8223 124.681 31.7682 124.713 33.3451Z" fill="black"/>
<path d="M137.216 33.3276C137.216 34.1792 137.377 34.9045 137.537 34.9045C137.729 34.9045 137.858 34.1792 137.858 33.3276C137.858 32.4445 137.729 31.7507 137.537 31.7507C137.377 31.7507 137.216 32.4445 137.216 33.3276Z" fill="black"/>
<path d="M155.499 32.9462C155.499 34.3655 155.851 34.7124 157.327 34.7124C158.907 34.5851 158.546 35.1767 158.305 33.5208C158.16 32.5217 158.257 31.7478 158.032 31.9055C157.84 32.0001 157.824 32.4563 157.824 32.8111C157.776 33.63 157.383 34.4511 156.742 34.2303C156.549 34.1672 156.268 33.7663 156.204 33.0409C156.076 31.3693 155.499 31.3062 155.499 32.9462Z" fill="black"/>
<path d="M139.052 24.0575C139.052 25.2875 139.02 25.319 137.93 25.319C136.518 25.319 135.845 26.3913 136.422 27.6844C136.743 28.3783 137.007 28.4877 138.13 28.4246L139.333 28.4245L139.573 24.0485C139.573 22.5346 139.309 22.7959 139.213 22.7959C139.116 22.7959 139.052 23.3636 139.052 24.0575ZM138.924 26.4229C139.148 27.2744 138.635 28.1575 137.93 28.1575C137.224 28.1575 136.711 27.2744 136.935 26.4229C137.096 25.8552 137.352 25.6344 137.93 25.6344C138.507 25.6344 138.764 25.8552 138.924 26.4229Z" fill="black"/>
<path d="M124.627 26.5555C124.627 28.1009 124.803 28.8939 124.867 28.1685C124.988 27.4589 125.052 25.7952 124.988 24.9752C124.924 24.1552 124.627 24.9785 124.627 26.5555Z" fill="black"/>
<path d="M120.762 25.4382C120.537 25.659 120.377 26.1952 120.377 26.6367C120.377 27.0782 120.537 27.6144 120.762 27.8352C121.243 28.3083 122.526 28.3398 122.814 27.8352C122.943 27.6144 122.911 27.5829 122.654 27.709C122.462 27.8352 122.012 27.8667 121.692 27.7406C120.313 27.3306 120.858 25.0913 122.269 25.4698C122.622 25.5644 122.943 25.5013 122.943 25.3436C122.943 24.9336 121.211 24.9967 120.762 25.4382Z" fill="black"/>
<path d="M127.003 25.7615C126.457 26.3923 126.682 27.8746 127.355 28.2846C128.093 28.7262 129.665 28.1585 129.793 27.4331C129.857 27.1177 129.825 26.5185 129.729 26.0769C129.569 25.4777 129.312 25.32 128.446 25.32C127.869 25.32 127.195 25.5092 127.003 25.7615ZM129.216 26.2661C129.665 27.0861 129.12 28.1585 128.254 28.1585C127.484 28.1585 126.874 27.0861 127.131 26.2661C127.388 25.4146 128.767 25.4461 129.216 26.2661Z" fill="black"/>
<path d="M131.51 26.6701C131.51 28.0894 131.863 28.4363 133.339 28.4363C134.918 28.309 134.557 28.9005 134.317 27.2447C134.172 26.2456 134.269 25.4717 134.044 25.6293C133.852 25.724 133.836 26.1801 133.836 26.535C133.788 27.3538 133.395 28.175 132.753 27.9542C132.561 27.8911 132.28 27.4901 132.216 26.7647C132.088 25.0932 131.51 25.0301 131.51 26.6701Z" fill="black"/>
<path d="M134.41 38.4909C133.64 39.0271 133.448 40.4463 134.09 41.0771C134.539 41.5186 136.174 41.5819 136.431 41.1719C136.672 40.5805 135.91 40.8407 135.589 40.9353C134.98 41.0615 134.266 40.4385 134.266 39.8708C134.266 39.7131 134.523 39.8697 135.228 39.8697C136.607 39.8697 137.095 39.4371 136.373 38.4909C136.012 38.2544 135.308 37.8601 134.41 38.4909ZM135.95 38.9324C135.95 39.0901 135.677 39.2795 135.228 39.2795C134.779 39.2795 134.378 39.1217 134.507 38.9324C134.603 38.7432 134.988 38.617 135.34 38.617C135.661 38.617 135.95 38.7432 135.95 38.9324Z" fill="black"/>
<path d="M142.893 39.4406C142.893 40.8599 143.246 41.2068 144.721 41.2068C146.301 41.0795 145.94 41.6711 145.7 40.0152C145.555 39.0161 145.652 38.2422 145.427 38.3999C145.235 38.4945 145.219 38.9507 145.219 39.3055C145.171 40.1244 144.778 40.9455 144.136 40.7247C143.944 40.6616 143.663 40.2606 143.599 39.5352C143.471 37.8637 142.893 37.8006 142.893 39.4406Z" fill="black"/>
<path d="M125.338 39.6767C125.338 41.096 125.691 41.4429 127.166 41.4429C128.746 41.3156 128.385 41.9071 128.144 40.2513C127.999 39.2522 128.096 38.4782 127.872 38.6359C127.679 38.7306 127.663 39.1867 127.663 39.5416C127.615 40.3604 127.222 41.1816 126.581 40.9608C126.388 40.8977 126.108 40.4967 126.043 39.7713C125.915 38.0998 125.338 38.0367 125.338 39.6767Z" fill="black"/>
<path d="M120.257 38.233C120.193 41.2291 119.896 41.5445 122.182 41.4262C124.707 41.2955 123.617 37.6348 121.66 38.0448C120.762 38.2341 120.987 37.7836 120.859 36.459C120.498 35.5127 120.289 36.7506 120.257 38.233ZM122.542 39.2973C122.895 40.4327 122.238 41.2302 121.179 40.8518C120.698 40.6625 120.682 39.4393 121.099 39.0608C121.548 38.6193 122.35 38.6981 122.542 39.2973Z" fill="black"/>
<path d="M130.101 40.0031C130.133 41.8639 130.277 41.8076 130.397 40.5067C130.558 39.3398 130.646 39.0254 131.255 38.9623C131.64 38.8992 132.202 38.8508 131.961 38.5523C131.72 38.496 130.927 38.3225 130.638 38.7325C130.51 38.9848 130.518 37.9046 130.157 38.0229C129.962 38.0867 130.069 38.8361 130.101 40.0031Z" fill="black"/>
<path d="M138.843 38.4763C138.523 38.7286 138.394 38.9494 138.587 38.9494C138.747 38.9494 139.068 38.7917 139.26 38.6025C139.453 38.4132 139.774 38.3502 139.966 38.4448C140.608 38.8548 140.319 39.5171 139.357 39.864C138.427 40.1794 138.074 40.9363 138.715 41.3148C138.876 41.4094 139.293 41.3463 139.581 41.1886C140.126 40.8733 140.126 40.8733 139.613 40.8417C138.908 40.8417 138.876 40.3371 139.549 40.0848C140.255 39.8325 140.255 39.8325 140.383 40.5894C140.447 40.9679 140.672 41.3148 140.928 41.4094C141.185 41.504 141.281 41.4094 141.153 41.2202C141.025 41.031 140.864 40.3371 140.8 39.7063C140.543 37.8771 140.062 37.5617 138.843 38.4763Z" fill="black"/>
</svg>
